<?xml version="1.0" encoding="utf-8"?>
<!-- Generator: Adobe Illustrator 27.0.0, SVG Export Plug-In . SVG Version: 6.00 Build 0)  -->
<svg version="1.1" id="Layer_1" xmlns="http://www.w3.org/2000/svg" xmlns:xlink="http://www.w3.org/1999/xlink" x="0px" y="0px"
	 viewBox="0 0 878 80" style="enable-background:new 0 0 878 80;" xml:space="preserve">
<style type="text/css">
	.st0{enable-background:new    ;}
	.st1{fill:#747678;}
	.st2{fill:#10284A;}
	.st3{fill:#10284A;stroke:#182B49;stroke-miterlimit:10;}
	.st4{fill:#C49014;}
</style>
<g>
	<g class="st0">
		<path class="st1" d="M476.7,33.3v1.2h-6V23.7h1.4v9.7H476.7z"/>
		<path class="st1" d="M484.1,30.8c0,2.2-1,3.8-3.3,3.8c-2.2,0-3.2-1.6-3.2-3.8c0-2.2,1-3.8,3.3-3.8C483.1,27,484.1,28.7,484.1,30.8
			z M482.8,30.8c0-1.6-0.6-2.6-2-2.6c-1.4,0-2,1-2,2.6c0,1.6,0.6,2.7,2,2.7C482.3,33.5,482.8,32.5,482.8,30.8z"/>
		<path class="st1" d="M492,27.2v7.9c0,1.5-1.2,2.7-3.1,2.7c-1.9,0-2.9-1-2.9-2.2h1.2c0,0.5,0.6,1.2,1.7,1.2c1.1,0,1.8-0.7,1.8-1.6
			v-1.4c-0.4,0.5-1.2,0.9-2,0.9c-2.1,0-3.1-1.5-3.1-3.8c0-2.3,1-3.8,3.1-3.8c1,0,1.6,0.4,2.1,0.9v-0.7H492z M488.9,33.5
			c0.8,0,1.4-0.4,1.8-0.9v-3.5c-0.3-0.4-0.8-0.9-1.8-0.9c-1.6,0-2,1.1-2,2.6C486.9,32.3,487.3,33.5,488.9,33.5z"/>
		<path class="st1" d="M500.3,30.8c0,2.2-1,3.8-3.3,3.8c-2.2,0-3.2-1.6-3.2-3.8c0-2.2,1-3.8,3.3-3.8C499.3,27,500.3,28.7,500.3,30.8
			z M499,30.8c0-1.6-0.6-2.6-2-2.6c-1.4,0-2,1-2,2.6c0,1.6,0.6,2.7,2,2.7C498.4,33.5,499,32.5,499,30.8z"/>
		<path class="st1" d="M503.9,32.4c0,0.7,0.3,1.1,1,1.1c0.3,0,0.7-0.1,1-0.2l0.1,1.1c-0.4,0.2-0.9,0.3-1.5,0.3
			c-1.3,0-1.9-0.8-1.9-2.1v-4.2h-1.4v-0.9l1.4-0.2v-1.8l1.3-0.2v2.1h2v1.1h-2V32.4z"/>
		<path class="st1" d="M510.3,32.5l2-5.3h1.4L509.4,38H508l1.7-3.9l-3.1-6.8h1.4L510.3,32.5z"/>
		<path class="st1" d="M516.4,38h-1.3V27.2h1.2v0.7c0.4-0.5,1.2-0.9,2.2-0.9c2.1,0,3.1,1.5,3.1,3.8c0,2.3-1,3.8-3.1,3.8
			c-1,0-1.7-0.4-2.1-0.8V38z M518.2,28.2c-0.9,0-1.5,0.4-1.8,0.9v3.5c0.3,0.4,0.9,0.9,1.8,0.9c1.6,0,2.1-1.1,2.1-2.6
			C520.3,29.4,519.8,28.2,518.2,28.2z"/>
		<path class="st1" d="M528.4,32.8l0.6,0.9c-0.5,0.5-1.5,1-2.6,1c-2.4,0-3.3-1.6-3.3-3.8c0-2.1,1-3.8,3.2-3.8c2,0,2.9,1.5,2.9,3.1
			c0,0.4,0,0.8-0.1,1.1h-4.8c0,1.4,0.6,2.3,2.1,2.3C527,33.6,527.8,33.3,528.4,32.8z M527.9,30.3c0-0.1,0-0.2,0-0.3
			c0-1.1-0.6-1.8-1.7-1.8c-1.3,0-1.8,0.9-1.9,2.2H527.9z"/>
	</g>
	<g class="st0">
		<path class="st1" d="M470.7,67.1h3.7c2.5,0,3.7,1.1,3.7,3c0,1.6-1,2.7-2.8,2.9l3.1,4.9h-1.6l-2.9-4.8h-1.9l0,4.8h-1.4V67.1z
			 M474.4,68.3h-2.3V72h2.3c1.8,0,2.4-0.7,2.4-1.9C476.8,69,476.1,68.3,474.4,68.3z"/>
		<path class="st1" d="M486.1,77.9h-1.2V77c-0.4,0.6-1.3,1-2.4,1c-1.8,0-2.6-1-2.6-2.8v-4.7h1.3v4.5c0,1.1,0.4,1.7,1.7,1.7
			c0.9,0,1.6-0.4,2-0.8v-5.4h1.3V77.9z"/>
		<path class="st1" d="M489.4,66.9v9c0,0.6,0.2,0.9,0.7,0.9h0.4V78h-0.8c-1.3,0-1.7-0.8-1.7-2v-9.1H489.4z"/>
		<path class="st1" d="M496.9,76.2l0.6,0.9c-0.5,0.5-1.5,1-2.6,1c-2.4,0-3.3-1.6-3.3-3.8c0-2.1,1-3.8,3.2-3.8c2,0,2.9,1.5,2.9,3.1
			c0,0.4,0,0.8-0.1,1.1h-4.8c0,1.4,0.6,2.3,2.1,2.3C495.6,77,496.4,76.7,496.9,76.2z M496.5,73.7c0-0.1,0-0.2,0-0.3
			c0-1.1-0.6-1.8-1.7-1.8c-1.3,0-1.8,0.9-1.9,2.2H496.5z"/>
		<path class="st1" d="M504.1,66.9v9c0,0.6,0.2,0.9,0.7,0.9h0.4V78h-0.8c-1.3,0-1.7-0.8-1.7-2v-9.1H504.1z"/>
		<path class="st1" d="M506.4,68c0-0.6,0.4-0.9,0.9-0.9c0.5,0,0.9,0.3,0.9,0.9c0,0.6-0.4,0.9-0.9,0.9
			C506.8,68.8,506.4,68.6,506.4,68z M506.7,70.6h1.3v7.3h-1.3V70.6z"/>
		<path class="st1" d="M510.1,70.6h1.2v0.9c0.4-0.6,1.3-1,2.4-1c1.8,0,2.6,1,2.6,2.8v4.7H515v-4.5c0-1.1-0.4-1.7-1.7-1.7
			c-0.9,0-1.6,0.4-2,0.8v5.4h-1.3V70.6z"/>
		<path class="st1" d="M523.4,76.2l0.6,0.9c-0.5,0.5-1.5,1-2.6,1c-2.4,0-3.3-1.6-3.3-3.8c0-2.1,1-3.8,3.2-3.8c2,0,2.9,1.5,2.9,3.1
			c0,0.4,0,0.8-0.1,1.1h-4.8c0,1.4,0.6,2.3,2.1,2.3C522,77,522.8,76.7,523.4,76.2z M522.9,73.7c0-0.1,0-0.2,0-0.3
			c0-1.1-0.6-1.8-1.7-1.8c-1.3,0-1.8,0.9-1.9,2.2H522.9z"/>
	</g>
	<g>
		<g>
			<path class="st2" d="M47.8,38.8c0,11.8-1.7,20.8-19.7,20.8S7.5,51,7.5,38.8V10.1C7.5,3.6,4.8,3,0,3V1.3h22.7V3
				c-4.6,0-7.5,0.6-7.5,7.1v28.7c0,8.8,2.1,17.4,13.3,17.4c12.4,0,14.4-7.1,14.4-17.4V10.1C42.9,3.6,40,3,35.3,3V1.3h20V3
				c-4.8,0-7.5,0.6-7.5,7.1L47.8,38.8L47.8,38.8L47.8,38.8z"/>
			<path class="st2" d="M95.6,57.3c-4.2,1.6-9.1,2.3-15.4,2.3c-17.3,0-25.6-13.1-25.6-31.5c0-16,5.2-27.7,23.6-27.7
				c6.9,0,12.8,1.4,16.6,2.4l0.8,13.6h-2.2c-1.1-4.8-4.6-12.6-15.3-12.6c-13.9,0-15,14.8-15,23.7c0,11.1,2.4,28.3,21.3,28.3
				c5.8,0,8.9-1.3,11.1-2.2L95.6,57.3L95.6,57.3L95.6,57.3z"/>
			<path class="st2" d="M141.9,13.7c-0.8-4.6-4.2-9.9-13.5-9.9c-5.8,0-10.9,3.7-10.9,9.4c0,7.7,10.3,10.2,17.8,14.6
				c6.8,4,11.4,7.5,11.4,15.7c0,11-9.5,16.2-21.3,16.2c-5.9,0-12.7-1.3-14.8-1.6L110,45.8h2.2c0.7,4.6,4.8,9.9,14,9.9
				c7.6,0,12.5-4.9,12.5-10.9c0-9.3-14.3-12.2-22.4-18.3c-3.8-2.9-5.6-6-5.6-11.6c0-10.4,8.6-14.6,19.4-14.6c5.8,0,9.5,0.7,13.4,1.5
				l0.6,11.8L141.9,13.7L141.9,13.7z"/>
			<path class="st3" d="M182,58.8c-0.9,0.2-2.8,0.7-5.6,0.7c-4.5,0-5.8-2.3-5.8-5.6h-0.1c-2.4,3.5-5.7,5.6-10.9,5.6
				s-9.2-3.7-9.2-8.7c0-11.1,14.4-11.1,20.3-11.7v-2.9c0-5.4-0.1-11-6.5-11c-4.8,0-5.4,2-5.4,4.5c0,3.2-2.3,4-3.6,4
				c-2.1,0-3.7-1.4-3.7-3.5c0-5,7.4-7.5,12.8-7.5c10.5,0,12.4,5.1,12.4,12.2v19c0,2.7,0.9,3.6,3.3,3.6c0.7,0,1.4-0.2,2.1-0.3v1.6
				L182,58.8L182,58.8z M170.6,41.7c-3.6,0.1-13.4,0.8-13.4,7.9c0,4,2.6,6.7,5.2,6.7c5,0,8.2-4.8,8.2-10L170.6,41.7L170.6,41.7
				L170.6,41.7z"/>
			<path class="st2" d="M183.7,57.4c3.2,0,5.8-0.7,5.8-5.7V30.8c0-4.6-3.6-4.8-5.8-5v-1.3l11.8-1.8v10.1h0.1
				c1.1-2.8,4.5-10.1,12.1-10.1c8.1,0,8.9,4.5,8.9,11.6v17.5c0,5,2.6,5.7,5.8,5.7v1.3h-17.7v-1.4c3.2,0,5.8-0.7,5.8-5.7V35.9
				c0-6.6-0.1-9.6-5.1-9.6c-4.5,0-10.1,8.7-10.1,16v9.5c0,5,2.6,5.7,5.8,5.7v1.3h-17.7L183.7,57.4L183.7,57.4L183.7,57.4z"/>
			<path class="st2" d="M231.4,57c4.6,0,7.5-0.6,7.5-7.1V10.1c0-6.5-2.9-7.1-7.5-7.1V1.3h20.2c14.3,0,29.5,3.1,29.5,28.8
				s-16,28.7-29.5,28.7h-20.2C231.4,58.8,231.4,57,231.4,57z M246.5,48.1c0,6.3,0.7,7.3,5,7.3c14.8,0,21-7.9,21-25.3
				c0-15.9-4.6-25.5-21-25.5c-4.3,0-5,0.5-5,7.3V48.1z"/>
			<path class="st2" d="M284.2,57.4c3.2,0,5.8-0.7,5.8-5.7V30.8c0-4.6-3.5-4.8-5.8-5v-1.3l11.8-1.8v29.1c0,5,2.6,5.7,5.8,5.7v1.3
				h-17.7L284.2,57.4L284.2,57.4z M288.4,11.2c0-2.5,1.9-4.4,4.4-4.4s4.4,1.9,4.4,4.4s-1.9,4.4-4.4,4.4
				C290.4,15.6,288.4,13.7,288.4,11.2z"/>
			<path class="st2" d="M329.7,58.1c-1.9,0.7-4.5,1.4-9.1,1.4c-11.9,0-18.6-6.5-18.6-19.4c0-11.2,4.5-17.4,15.6-17.4
				c6.9,0,13.1,3.8,13.1,12.7v1.7h-22.3c0,6.4,3.1,19.6,16,19.6c1.8,0,3.8-0.2,5.4-1V58.1L329.7,58.1L329.7,58.1z M323.8,34.5
				c0-4.1-1.4-9.4-7.3-9.4s-8.2,6.5-8.2,9.4H323.8L323.8,34.5z"/>
			<path class="st2" d="M355.6,52.6c3.7,0,12.2,0.2,12.2,8.7s-8.6,13.7-18.8,13.7c-7.5,0-15.4-2.8-15.4-9.8c0-4.8,3.5-6.8,6-8.1
				c-1.3-0.8-3.3-2.2-3.3-5.4c0-2.8,2.5-5.8,3.3-6.7c-1.8-1.5-4.5-3.8-4.5-10.3c0-9.9,7.2-12.1,14.5-12.1c3.5,0,5.5,0.6,7.9,1.9
				c1.2-2.9,3-8.2,7.7-8.2c2.2,0,3.7,1.4,3.7,3.7c0,2.1-1.3,3.5-3.6,3.5c-2,0-2.5-1.1-3.5-1.1c-1.7,0-2.4,2.2-2.8,3.5
				c0.9,1,3.5,3.8,3.5,9.2c0,7.7-4.8,12.1-14,12.1c-3.1,0-5.3-0.4-7-1.2c-0.5,0.6-1.4,1.8-1.4,3.5c0,3.1,3.8,3.1,6.3,3.1L355.6,52.6
				L355.6,52.6z M342.4,58.1c-1.5,1.2-3.7,2.5-3.7,5.9c0,4.5,4.1,8.4,10.8,8.4s13.4-3.6,13.4-9.2c0-3.9-3.2-5.2-7.1-5.2L342.4,58.1
				L342.4,58.1z M349,44.7c6.4,0,7.3-5.1,7.3-9.2c0-5.8-2-10.4-7.5-10.4c-6.1,0-7.2,4.5-7.2,8.9C341.6,39.9,343.5,44.7,349,44.7
				L349,44.7z"/>
			<path class="st2" d="M367.9,41.1c0-11.5,6.2-18.4,16-18.4s16,6.9,16,18.4s-6.2,18.4-16,18.4S367.9,52.6,367.9,41.1z M384,57
				c7.7,0,9.2-9.5,9.2-15.9s-1.5-15.9-9.2-15.9s-9.2,9.5-9.2,15.9C374.7,47.4,376.3,57,384,57z"/>
		</g>
		<g id="line">
			<path class="st4" d="M329.7,72H0v1.9h331.6C330.9,73.4,330.3,72.7,329.7,72L329.7,72z"/>
			<path class="st4" d="M399.4,72h-30.3c-0.7,0.7-1.5,1.3-2.3,1.9h32.6L399.4,72L399.4,72z"/>
		</g>
	</g>
	<polygon class="st1" points="428.3,59 415,59 415,58.3 427.6,58.3 427.6,0.8 415,0.8 415,0 428.3,0 	"/>
	<rect x="415" y="72.6" class="st1" width="48.4" height="0.8"/>
	<rect x="428" y="29.1" class="st1" width="35.5" height="0.8"/>
</g>
</svg>
